<svg width="39" height="25" viewBox="0 0 39 25" fill="none" xmlns="http://www.w3.org/2000/svg">
<g id="Component 7">
<path id="Vector" opacity="0.07" d="M35.705 0.509766H3.70496C2.00496 0.509766 0.704956 1.80977 0.704956 3.50977V21.5098C0.704956 23.2098 2.10496 24.5098 3.70496 24.5098H35.705C37.405 24.5098 38.705 23.2098 38.705 21.5098V3.50977C38.705 1.80977 37.305 0.509766 35.705 0.509766Z" fill="black"/>
<path id="Vector_2" d="M35.705 1.50977C36.805 1.50977 37.705 2.40977 37.705 3.50977V21.5098C37.705 22.6098 36.805 23.5098 35.705 23.5098H3.70496C2.60496 23.5098 1.70496 22.6098 1.70496 21.5098V3.50977C1.70496 2.40977 2.60496 1.50977 3.70496 1.50977H35.705Z" fill="white"/>
<path id="Vector_3" d="M12.7049 12.5098V16.2098C12.7049 16.5098 12.5049 16.5098 12.2049 16.4098C10.3049 15.6098 9.20494 13.1098 9.90494 11.0098C10.3049 9.90977 11.1049 9.00977 12.2049 8.60977C12.6049 8.40977 12.7049 8.50977 12.7049 8.80977V12.5098ZM14.7049 12.5098V8.80977C14.7049 8.50977 14.7049 8.50977 15.0049 8.60977C17.1049 9.40977 18.2049 11.9098 17.4049 14.0098C17.0049 15.1098 16.2049 16.0098 15.1049 16.4098C14.7049 16.6098 14.7049 16.5098 14.7049 16.2098V12.5098ZM21.9049 5.50977H13.7049C17.5049 5.50977 20.5049 8.60977 20.5049 12.5098C20.5049 16.4098 17.5049 19.5098 13.7049 19.5098H21.9049C25.7049 19.5098 28.7049 16.4098 28.7049 12.5098C28.7049 8.60977 25.7049 5.50977 21.9049 5.50977Z" fill="#3086C8"/>
</g>
</svg>
