<svg width="39" height="25" viewBox="0 0 39 25" fill="none" xmlns="http://www.w3.org/2000/svg">
<g id="Component 7">
<path id="Vector" opacity="0.07" d="M35.705 0.509766H3.70496C2.00496 0.509766 0.704956 1.80977 0.704956 3.50977V21.5098C0.704956 23.2098 2.10496 24.5098 3.70496 24.5098H35.705C37.405 24.5098 38.705 23.2098 38.705 21.5098V3.50977C38.705 1.80977 37.305 0.509766 35.705 0.509766Z" fill="black"/>
<path id="Vector_2" d="M35.705 1.50977C36.805 1.50977 37.705 2.40977 37.705 3.50977V21.5098C37.705 22.6098 36.805 23.5098 35.705 23.5098H3.70496C2.60496 23.5098 1.70496 22.6098 1.70496 21.5098V3.50977C1.70496 2.40977 2.60496 1.50977 3.70496 1.50977H35.705Z" fill="white"/>
<path id="Vector_3" d="M15.705 19.5098C19.5709 19.5098 22.705 16.3758 22.705 12.5098C22.705 8.64377 19.5709 5.50977 15.705 5.50977C11.839 5.50977 8.70496 8.64377 8.70496 12.5098C8.70496 16.3758 11.839 19.5098 15.705 19.5098Z" fill="#EB001B"/>
<path id="Vector_4" d="M23.705 19.5098C27.5709 19.5098 30.705 16.3758 30.705 12.5098C30.705 8.64377 27.5709 5.50977 23.705 5.50977C19.839 5.50977 16.705 8.64377 16.705 12.5098C16.705 16.3758 19.839 19.5098 23.705 19.5098Z" fill="#F79E1B"/>
<path id="Vector_5" d="M22.705 12.5096C22.705 10.1096 21.505 8.00957 19.705 6.80957C17.905 8.10957 16.705 10.2096 16.705 12.5096C16.705 14.8096 17.905 17.0096 19.705 18.2096C21.505 17.0096 22.705 14.9096 22.705 12.5096Z" fill="#FF5F00"/>
</g>
</svg>
