<svg width="39" height="25" viewBox="0 0 39 25" fill="none" xmlns="http://www.w3.org/2000/svg">
<g id="Component 7">
<path id="Vector" opacity="0.07" d="M35.705 0.509766H3.70496C2.00496 0.509766 0.704956 1.80977 0.704956 3.50977V21.5098C0.704956 23.2098 2.10496 24.5098 3.70496 24.5098H35.705C37.405 24.5098 38.705 23.2098 38.705 21.5098V3.50977C38.705 1.80977 37.305 0.509766 35.705 0.509766Z" fill="black"/>
<path id="Vector_2" d="M35.705 1.50977C36.805 1.50977 37.705 2.40977 37.705 3.50977V21.5098C37.705 22.6098 36.805 23.5098 35.705 23.5098H3.70496C2.60496 23.5098 1.70496 22.6098 1.70496 21.5098V3.50977C1.70496 2.40977 2.60496 1.50977 3.70496 1.50977H35.705Z" fill="#006FCF"/>
<path id="Vector_3" d="M22.7169 20.4454V12.0244L37.7049 12.0374V14.3634L35.9729 16.2154L37.7049 18.0824V20.4574H34.9389L33.4689 18.8354L32.0089 20.4634L22.7169 20.4434V20.4454Z" fill="white"/>
<path id="Vector_4" d="M23.718 19.5221V12.9521H29.29V14.4651H25.522V15.4931H29.2V16.9811H25.522V17.9911H29.29V19.5221H23.718Z" fill="#006FCF"/>
<path id="Vector_5" d="M29.262 19.5222L32.345 16.2332L29.262 12.9512H31.648L33.532 15.0342L35.422 12.9522H37.705V13.0032L34.688 16.2332L37.705 19.4302V19.5232H35.398L33.481 17.4202L31.583 19.5242H29.262V19.5222Z" fill="#006FCF"/>
<path id="Vector_6" d="M23.415 4.5498H27.029L28.298 7.4308V4.5498H32.758L33.528 6.7088L34.299 4.5498H37.705V12.9708H19.705L23.415 4.5498Z" fill="white"/>
<path id="Vector_7" d="M24.1 5.46484L21.184 12.0308H23.184L23.734 10.7158H26.714L27.264 12.0308H29.314L26.41 5.46484H24.1ZM24.35 9.24184L25.225 7.15184L26.098 9.24184H24.35Z" fill="#006FCF"/>
<path id="Vector_8" d="M29.286 12.0299V5.46289L32.097 5.47289L33.545 9.50989L35.001 5.46389H37.705V12.0289L35.965 12.0449V7.53489L34.321 12.0289H32.731L31.055 7.51989V12.0299H29.287H29.286Z" fill="#006FCF"/>
</g>
</svg>
