<svg width="39" height="25" viewBox="0 0 39 25" fill="none" xmlns="http://www.w3.org/2000/svg">
<g id="Component 7">
<path id="Vector" opacity="0.07" d="M35.705 0.509766H3.70496C2.00496 0.509766 0.704956 1.80977 0.704956 3.50977V21.5098C0.704956 23.2098 2.10496 24.5098 3.70496 24.5098H35.705C37.405 24.5098 38.705 23.2098 38.705 21.5098V3.50977C38.705 1.80977 37.305 0.509766 35.705 0.509766Z" fill="black"/>
<path id="Vector_2" d="M35.705 1.50977C36.805 1.50977 37.705 2.40977 37.705 3.50977V21.5098C37.705 22.6098 36.805 23.5098 35.705 23.5098H3.70496C2.60496 23.5098 1.70496 22.6098 1.70496 21.5098V3.50977C1.70496 2.40977 2.60496 1.50977 3.70496 1.50977H35.705Z" fill="white"/>
<path id="Vector_3" d="M24.605 8.80977C24.805 7.80977 24.605 7.10977 24.005 6.50977C23.405 5.80977 22.305 5.50977 20.905 5.50977H16.805C16.505 5.50977 16.305 5.70977 16.205 6.00977L14.705 16.1098C14.705 16.3098 14.805 16.5098 15.005 16.5098H17.705L18.105 13.1098L19.905 10.9098L24.605 8.80977Z" fill="#003087"/>
<path id="Vector_4" d="M24.6049 8.80957L24.4049 9.00957C23.9049 11.8096 22.2049 12.8096 19.8049 12.8096H18.7049C18.4049 12.8096 18.2049 13.0096 18.1049 13.3096L17.5049 17.2096L17.3049 18.2096C17.3049 18.4096 17.4049 18.6096 17.6049 18.6096H19.7049C20.0049 18.6096 20.2049 18.4096 20.2049 18.2096V18.1096L20.6049 15.7096V15.6096C20.6049 15.4096 20.9049 15.2096 21.1049 15.2096H21.4049C23.5049 15.2096 25.1049 14.4096 25.5049 12.0096C25.7049 11.0096 25.6049 10.2096 25.1049 9.60957C25.0049 9.10957 24.8049 8.90957 24.6049 8.80957Z" fill="#3086C8"/>
<path id="Vector_5" d="M24.005 8.60957C23.905 8.50957 23.805 8.50957 23.705 8.50957C23.605 8.50957 23.505 8.50957 23.405 8.40957C23.105 8.30957 22.705 8.30957 22.305 8.30957H19.305C19.205 8.30957 19.105 8.30957 19.105 8.40957C18.905 8.50957 18.805 8.60957 18.805 8.80957L18.105 13.2096V13.3096C18.105 13.0096 18.405 12.8096 18.705 12.8096H20.005C22.505 12.8096 24.105 11.8096 24.605 9.00957V8.80957C24.505 8.70957 24.305 8.60957 24.105 8.60957H24.005Z" fill="#012169"/>
</g>
</svg>
