<svg width="39" height="25" viewBox="0 0 39 25" fill="none" xmlns="http://www.w3.org/2000/svg">
<g id="Component 7">
<path id="Vector" opacity="0.07" d="M35.705 0.509766H3.70496C2.00496 0.509766 0.704956 1.80977 0.704956 3.50977V21.5098C0.704956 23.2098 2.10496 24.5098 3.70496 24.5098H35.705C37.405 24.5098 38.705 23.2098 38.705 21.5098V3.50977C38.705 1.80977 37.305 0.509766 35.705 0.509766Z" fill="black"/>
<path id="Vector_2" d="M35.705 1.50977C36.805 1.50977 37.705 2.40977 37.705 3.50977V21.5098C37.705 22.6098 36.805 23.5098 35.705 23.5098H3.70496C2.60496 23.5098 1.70496 22.6098 1.70496 21.5098V3.50977C1.70496 2.40977 2.60496 1.50977 3.70496 1.50977H35.705Z" fill="white"/>
<path id="Vector_3" d="M29.005 10.6098H28.705C28.305 11.6098 28.005 12.1098 27.705 13.6098H29.605C29.305 12.1098 29.305 11.4098 29.005 10.6098ZM31.905 16.5098H30.205C30.105 16.5098 30.105 16.5098 30.005 16.4098L29.805 15.5098L29.705 15.3098H27.305C27.205 15.3098 27.105 15.3098 27.105 15.5098L26.805 16.4098C26.805 16.5098 26.705 16.5098 26.705 16.5098H24.605L24.805 16.0098L27.705 9.20977C27.705 8.70977 28.005 8.50977 28.505 8.50977H30.005C30.105 8.50977 30.205 8.50977 30.205 8.70977L31.605 15.2098C31.705 15.6098 31.805 15.9098 31.805 16.3098C31.905 16.4098 31.905 16.4098 31.905 16.5098ZM18.505 16.2098L18.905 14.4098C19.005 14.4098 19.105 14.5098 19.105 14.5098C19.805 14.8098 20.505 15.0098 21.205 14.9098C21.405 14.9098 21.705 14.8098 21.905 14.7098C22.405 14.5098 22.405 14.0098 22.005 13.6098C21.805 13.4098 21.505 13.3098 21.205 13.1098C20.805 12.9098 20.405 12.7098 20.105 12.4098C18.905 11.4098 19.305 10.0098 20.005 9.30977C20.605 8.90977 20.905 8.50977 21.705 8.50977C22.905 8.50977 24.205 8.50977 24.805 8.70977H24.905C24.805 9.30977 24.705 9.80977 24.505 10.4098C24.005 10.2098 23.505 10.0098 23.005 10.0098C22.705 10.0098 22.405 10.0098 22.105 10.1098C21.905 10.1098 21.805 10.2098 21.705 10.3098C21.505 10.5098 21.505 10.8098 21.705 11.0098L22.205 11.4098C22.605 11.6098 23.005 11.8098 23.305 12.0098C23.805 12.3098 24.305 12.8098 24.405 13.4098C24.605 14.3098 24.305 15.1098 23.505 15.7098C23.005 16.1098 22.805 16.3098 22.105 16.3098C20.705 16.3098 19.605 16.4098 18.705 16.1098C18.605 16.3098 18.605 16.3098 18.505 16.2098ZM15.005 16.5098C15.105 15.8098 15.105 15.8098 15.205 15.5098C15.705 13.3098 16.205 11.0098 16.605 8.80977C16.705 8.60977 16.705 8.50977 16.905 8.50977H18.705C18.505 9.70977 18.305 10.6098 18.005 11.7098C17.705 13.2098 17.405 14.7098 17.005 16.2098C17.005 16.4098 16.905 16.4098 16.705 16.4098M5.70496 8.70977C5.70496 8.60977 5.90496 8.50977 6.00496 8.50977H9.40496C9.90496 8.50977 10.305 8.80977 10.405 9.30977L11.305 13.7098C11.305 13.8098 11.305 13.8098 11.405 13.9098C11.405 13.8098 11.505 13.8098 11.505 13.8098L13.605 8.70977C13.505 8.60977 13.605 8.50977 13.705 8.50977H15.805C15.805 8.60977 15.805 8.60977 15.705 8.70977L12.605 16.0098C12.505 16.2098 12.505 16.3098 12.405 16.4098C12.305 16.5098 12.105 16.4098 11.905 16.4098H10.405C10.305 16.4098 10.205 16.4098 10.205 16.2098L8.60496 10.0098C8.40496 9.80977 8.10496 9.50977 7.70496 9.40977C7.10496 9.10977 6.00496 8.90977 5.80496 8.90977L5.70496 8.70977Z" fill="#142688"/>
</g>
</svg>
