<svg width="39" height="25" viewBox="0 0 39 25" fill="none" xmlns="http://www.w3.org/2000/svg">
<g id="Component 7">
<path id="Vector" opacity="0.07" d="M35.705 0.509766H3.70496C2.00496 0.509766 0.704956 1.80977 0.704956 3.50977V21.5098C0.704956 23.2098 2.10496 24.5098 3.70496 24.5098H35.705C37.405 24.5098 38.705 23.2098 38.705 21.5098V3.50977C38.705 1.80977 37.305 0.509766 35.705 0.509766Z" fill="black"/>
<path id="Vector_2" d="M35.705 1.50977C36.805 1.50977 37.705 2.40977 37.705 3.50977V21.5098C37.705 22.6098 36.805 23.5098 35.705 23.5098H3.70496C2.60496 23.5098 1.70496 22.6098 1.70496 21.5098V3.50977C1.70496 2.40977 2.60496 1.50977 3.70496 1.50977H35.705Z" fill="white"/>
<path id="Vector_3" d="M4.27496 7.6698H2.70496V13.1698H4.27496C5.10496 13.1698 5.70496 12.9698 6.23496 12.5398C6.86496 12.0198 7.23496 11.2398 7.23496 10.4298C7.22496 8.7998 6.01496 7.6698 4.27496 7.6698ZM5.53496 11.8098C5.19496 12.1098 4.76496 12.2498 4.06496 12.2498H3.77496V8.60981H4.06496C4.75496 8.60981 5.17496 8.7298 5.53496 9.0498C5.90496 9.3798 6.12496 9.8898 6.12496 10.4198C6.12496 10.9498 5.90496 11.4798 5.53496 11.8098ZM7.72496 7.6698H8.79496V13.1698H7.72496V7.6698ZM11.415 9.77981C10.775 9.53981 10.585 9.3798 10.585 9.0898C10.585 8.7398 10.925 8.4798 11.385 8.4798C11.705 8.4798 11.975 8.6098 12.245 8.9298L12.805 8.1998C12.345 7.7998 11.795 7.5898 11.185 7.5898C10.215 7.5898 9.46496 8.2698 9.46496 9.1698C9.46496 9.9298 9.81496 10.3198 10.815 10.6798C11.235 10.8298 11.445 10.9298 11.555 10.9898C11.765 11.1298 11.875 11.3298 11.875 11.5598C11.875 12.0098 11.525 12.3398 11.045 12.3398C10.535 12.3398 10.125 12.0798 9.87496 11.6098L9.18496 12.2798C9.67496 13.0098 10.275 13.3298 11.085 13.3298C12.195 13.3298 12.985 12.5898 12.985 11.5198C13.005 10.6298 12.635 10.2298 11.415 9.77981ZM13.335 10.4298C13.335 12.0498 14.605 13.2998 16.235 13.2998C16.695 13.2998 17.095 13.2098 17.575 12.9798V11.7198C17.145 12.1498 16.765 12.3198 16.285 12.3198C15.205 12.3198 14.435 11.5398 14.435 10.4198C14.435 9.3598 15.225 8.52981 16.235 8.52981C16.745 8.52981 17.135 8.70981 17.575 9.14981V7.8898C17.105 7.6498 16.715 7.5498 16.255 7.5498C14.645 7.5498 13.335 8.8298 13.335 10.4298ZM26.095 11.3698L24.625 7.6698H23.455L25.785 13.3098H26.365L28.735 7.6698H27.575L26.095 11.3698ZM29.225 13.1698H32.265V12.2398H30.295V10.7598H32.195V9.8298H30.295V8.60981H32.265V7.6698H29.225V13.1698ZM36.515 9.2998C36.515 8.2698 35.805 7.6798 34.565 7.6798H32.975V13.1798H34.045V10.9698H34.185L35.665 13.1798H36.985L35.255 10.8598C36.065 10.6898 36.515 10.1398 36.515 9.2998ZM34.355 10.2098H34.045V8.5398H34.375C35.045 8.5398 35.405 8.81981 35.405 9.35981C35.405 9.90981 35.045 10.2098 34.355 10.2098Z" fill="#231F20"/>
<path id="Vector_4" d="M20.865 13.3698C21.6423 13.3698 22.3878 13.061 22.9375 12.5113C23.4872 11.9617 23.796 11.2162 23.796 10.4388C23.796 9.66146 23.4872 8.91595 22.9375 8.36628C22.3878 7.81661 21.6423 7.50781 20.865 7.50781C20.0876 7.50781 19.3421 7.81661 18.7924 8.36628C18.2428 8.91595 17.934 9.66146 17.934 10.4388C17.934 11.2162 18.2428 11.9617 18.7924 12.5113C19.3421 13.061 20.0876 13.3698 20.865 13.3698Z" fill="url(#paint0_linear_1_3446)"/>
<path id="Vector_5" opacity="0.65" d="M20.865 13.3698C21.6423 13.3698 22.3878 13.061 22.9375 12.5113C23.4872 11.9617 23.796 11.2162 23.796 10.4388C23.796 9.66146 23.4872 8.91595 22.9375 8.36628C22.3878 7.81661 21.6423 7.50781 20.865 7.50781C20.0876 7.50781 19.3421 7.81661 18.7924 8.36628C18.2428 8.91595 17.934 9.66146 17.934 10.4388C17.934 11.2162 18.2428 11.9617 18.7924 12.5113C19.3421 13.061 20.0876 13.3698 20.865 13.3698Z" fill="url(#paint1_linear_1_3446)"/>
<path id="Vector_6" d="M37.2749 8.01621C37.2749 7.91621 37.2049 7.86621 37.0949 7.86621H36.9349V8.34621H37.0549V8.15621L37.1949 8.34621H37.3349L37.1749 8.14621C37.2349 8.13621 37.2749 8.08621 37.2749 8.01621ZM37.0749 8.08621H37.0549V7.95621H37.0749C37.1349 7.95621 37.1649 7.97621 37.1649 8.01621C37.1649 8.06621 37.1349 8.08621 37.0749 8.08621Z" fill="#231F20"/>
<path id="Vector_7" d="M37.1149 7.68555C36.8849 7.68555 36.6949 7.87555 36.6949 8.10555C36.6949 8.33555 36.8849 8.52555 37.1149 8.52555C37.3449 8.52555 37.5349 8.33555 37.5349 8.10555C37.5349 7.87555 37.3449 7.68555 37.1149 7.68555ZM37.1149 8.45555C36.9349 8.45555 36.7749 8.30555 36.7749 8.10555C36.7749 7.91555 36.9249 7.75555 37.1149 7.75555C37.2949 7.75555 37.4449 7.91555 37.4449 8.10555C37.4449 8.29555 37.2949 8.45555 37.1149 8.45555Z" fill="#231F20"/>
<path id="Vector_8" d="M37.7049 13.4941C37.7049 13.4941 27.7949 20.3831 9.68091 23.5101H35.7039C36.2316 23.5102 36.7379 23.3016 37.1125 22.93C37.4871 22.5584 37.6997 22.0538 37.7039 21.5261L37.7279 18.5061L37.7049 13.4941Z" fill="#F48120"/>
</g>
<defs>
<linearGradient id="paint0_linear_1_3446" x1="22.362" y1="12.7848" x2="20.337" y2="9.61381" gradientUnits="userSpaceOnUse">
<stop stop-color="#F89F20"/>
<stop offset="0.25" stop-color="#F79A20"/>
<stop offset="0.533" stop-color="#F68D20"/>
<stop offset="0.62" stop-color="#F58720"/>
<stop offset="0.723" stop-color="#F48120"/>
<stop offset="1" stop-color="#F37521"/>
</linearGradient>
<linearGradient id="paint1_linear_1_3446" x1="22.043" y1="12.7418" x2="19.083" y2="6.95581" gradientUnits="userSpaceOnUse">
<stop stop-color="#F58720"/>
<stop offset="0.359" stop-color="#E16F27"/>
<stop offset="0.703" stop-color="#D4602C"/>
<stop offset="0.982" stop-color="#D05B2E"/>
</linearGradient>
</defs>
</svg>
