<svg
    xmlns="http://www.w3.org/2000/svg"
    width="500"
    height="500"
    viewBox="0 0 375 375"
    preserveAspectRatio="xMidYMid meet"
  >
    <defs>
      <clipPath id="clip1">
        <path d="M 296 95 L 354.93 95 L 354.93 272 L 296 272 Z" />
      </clipPath>
      <clipPath id="clip2">
        <path d="M 28.85 95 L 89 95 L 89 272 L 28.85 272 Z" />
      </clipPath>
      <clipPath id="clip3">
        <path d="M 196 130 L 354.93 130 L 354.93 299 L 196 299 Z" />
      </clipPath>
    </defs>

    <path fill="#ec6753" d="M294.63 121.996L201.28 4.547l151.44 87.422z" />
    <path fill="#ec6753" d="M194.3 374.754l.36-71.285 152.21-16.797z" />
    <g clipPath="url(#clip1)">
      <path fill="#ec6753" d="M355.2 271.309L296.91 125.988 355.2 95.848z" />
    </g>
    <path fill="#ec6753" d="M190.07 303.469l-.35 71.316-152.64-88.125z" />
    <path fill="#ec6753" d="M90.69 120.84l-59.33-28.93L182.74 4.504z" />
    <g clipPath="url(#clip2)">
      <path fill="#ec6753" d="M28.77 95.746l59.64 29.086-59.64 146.64z" />
    </g>
    <path fill="#ec6753" d="M95.29 126.03h194.76L192.38 296.797z" />
    <path fill="#ec6753" d="M289.23 122.578H96.06L191.99 0.215z" />
    <path fill="#ec6753" d="M91.69 128.957l96.48 169.684-158.41-17.395z" />
    <g clipPath="url(#clip3)">
      <path fill="#ec6753" d="M293.63 130.129l60.61 151.117-157.63 17.395z" />
    </g>
  </svg>
